<?xml version="1.0" encoding="UTF-8" standalone="no"?>
<!DOCTYPE svg PUBLIC "-//W3C//DTD SVG 1.1//EN"
 "http://www.w3.org/Graphics/SVG/1.1/DTD/svg11.dtd">
<!-- Generated by graphviz version 2.42.3 (20191010.1750)
 -->
<!-- Title: finite_state_machine Pages: 1 -->
<svg width="452pt" height="406pt"
 viewBox="0.00 0.00 452.00 405.97" xmlns="http://www.w3.org/2000/svg" xmlns:xlink="http://www.w3.org/1999/xlink">
<g id="graph0" class="graph" transform="scale(1 1) rotate(0) translate(4 401.97)">
<title>finite_state_machine</title>
<polygon fill="white" stroke="transparent" points="-4,4 -4,-401.97 448,-401.97 448,4 -4,4"/>
<!-- 6 -->
<g id="node1" class="node">
<title>6</title>
<ellipse fill="none" stroke="black" cx="18" cy="-272.97" rx="18" ry="18"/>
<text text-anchor="middle" x="18" y="-269.27" font-family="Helvetica,Arial,sans-serif" font-size="14.00">6</text>
</g>
<!-- 4 -->
<g id="node2" class="node">
<title>4</title>
<ellipse fill="none" stroke="black" cx="98" cy="-302.97" rx="18" ry="18"/>
<text text-anchor="middle" x="98" y="-299.27" font-family="Helvetica,Arial,sans-serif" font-size="14.00">4</text>
</g>
<!-- 6&#45;&gt;4 -->
<g id="edge1" class="edge">
<title>6&#45;&gt;4</title>
<path fill="none" stroke="black" d="M35.16,-279.19C45.62,-283.21 59.46,-288.53 71.4,-293.12"/>
<polygon fill="black" stroke="black" points="70.27,-296.44 80.86,-296.76 72.78,-289.91 70.27,-296.44"/>
<text text-anchor="middle" x="58" y="-291.77" font-family="Helvetica,Arial,sans-serif" font-size="14.00">3</text>
</g>
<!-- 7 -->
<g id="node3" class="node">
<title>7</title>
<ellipse fill="none" stroke="black" cx="178" cy="-353.97" rx="18" ry="18"/>
<text text-anchor="middle" x="178" y="-350.27" font-family="Helvetica,Arial,sans-serif" font-size="14.00">7</text>
</g>
<!-- 4&#45;&gt;7 -->
<g id="edge19" class="edge">
<title>4&#45;&gt;7</title>
<path fill="none" stroke="black" d="M106.78,-318.91C112.74,-329.28 121.97,-342.11 134,-348.97 138.7,-351.65 144.15,-353.21 149.56,-354.08"/>
<polygon fill="black" stroke="black" points="149.43,-357.59 159.7,-355.01 150.06,-350.62 149.43,-357.59"/>
<text text-anchor="middle" x="138" y="-355.77" font-family="Helvetica,Arial,sans-serif" font-size="14.00">0</text>
</g>
<!-- 8 -->
<g id="node4" class="node">
<title>8</title>
<ellipse fill="none" stroke="black" cx="266" cy="-356.97" rx="18" ry="18"/>
<text text-anchor="middle" x="266" y="-353.27" font-family="Helvetica,Arial,sans-serif" font-size="14.00">8</text>
</g>
<!-- 4&#45;&gt;8 -->
<g id="edge22" class="edge">
<title>4&#45;&gt;8</title>
<path fill="none" stroke="black" d="M103.99,-320.25C109.21,-335.48 118.78,-357.31 134,-370.97 143.21,-379.24 147.83,-378.71 160,-380.97 190.74,-386.68 200.4,-384.03 230,-373.97 233.6,-372.75 237.31,-371.24 240.91,-369.63"/>
<polygon fill="black" stroke="black" points="242.51,-372.74 250.02,-365.27 239.49,-366.43 242.51,-372.74"/>
<text text-anchor="middle" x="178" y="-386.77" font-family="Helvetica,Arial,sans-serif" font-size="14.00">1</text>
</g>
<!-- 3 -->
<g id="node8" class="node">
<title>3</title>
<ellipse fill="none" stroke="black" cx="178" cy="-173.97" rx="18" ry="18"/>
<text text-anchor="middle" x="178" y="-170.27" font-family="Helvetica,Arial,sans-serif" font-size="14.00">3</text>
</g>
<!-- 4&#45;&gt;3 -->
<g id="edge20" class="edge">
<title>4&#45;&gt;3</title>
<path fill="none" stroke="black" d="M104.22,-285.89C109.99,-268.48 120.3,-241.09 134,-219.97 140.34,-210.2 148.84,-200.6 156.62,-192.72"/>
<polygon fill="black" stroke="black" points="159.33,-194.96 164.04,-185.46 154.44,-189.95 159.33,-194.96"/>
<text text-anchor="middle" x="138" y="-223.77" font-family="Helvetica,Arial,sans-serif" font-size="14.00">3</text>
</g>
<!-- 5 -->
<g id="node9" class="node">
<title>5</title>
<ellipse fill="none" stroke="black" cx="266" cy="-51.97" rx="18" ry="18"/>
<text text-anchor="middle" x="266" y="-48.27" font-family="Helvetica,Arial,sans-serif" font-size="14.00">5</text>
</g>
<!-- 4&#45;&gt;5 -->
<g id="edge21" class="edge">
<title>4&#45;&gt;5</title>
<path fill="none" stroke="black" d="M101.78,-285.26C106.28,-259.33 116.46,-209.87 134,-170.97 145.5,-145.46 210.15,-61.25 214,-58.97 221.06,-54.79 229.61,-52.7 237.68,-51.75"/>
<polygon fill="black" stroke="black" points="238.09,-55.23 247.84,-51.07 237.63,-48.25 238.09,-55.23"/>
<text text-anchor="middle" x="178" y="-132.77" font-family="Helvetica,Arial,sans-serif" font-size="14.00">3</text>
</g>
<!-- 7&#45;&gt;4 -->
<g id="edge2" class="edge">
<title>7&#45;&gt;4</title>
<path fill="none" stroke="black" d="M162.39,-344.42C151.08,-337.02 135.19,-326.64 122.15,-318.11"/>
<polygon fill="black" stroke="black" points="123.96,-315.11 113.67,-312.56 120.13,-320.97 123.96,-315.11"/>
<text text-anchor="middle" x="138" y="-333.77" font-family="Helvetica,Arial,sans-serif" font-size="14.00">1</text>
</g>
<!-- 7&#45;&gt;8 -->
<g id="edge3" class="edge">
<title>7&#45;&gt;8</title>
<path fill="none" stroke="black" d="M195.99,-354.56C207.81,-354.98 223.83,-355.53 237.46,-356.01"/>
<polygon fill="black" stroke="black" points="237.63,-359.52 247.75,-356.37 237.88,-352.52 237.63,-359.52"/>
<text text-anchor="middle" x="222" y="-358.77" font-family="Helvetica,Arial,sans-serif" font-size="14.00">10</text>
</g>
<!-- 8&#45;&gt;4 -->
<g id="edge24" class="edge">
<title>8&#45;&gt;4</title>
<path fill="none" stroke="black" d="M252.17,-345.28C239.13,-334.25 217.79,-318.47 196,-311.97 173.16,-305.16 146.08,-303.12 126.34,-302.66"/>
<polygon fill="black" stroke="black" points="126.24,-299.16 116.21,-302.55 126.17,-306.16 126.24,-299.16"/>
<text text-anchor="middle" x="178" y="-315.77" font-family="Helvetica,Arial,sans-serif" font-size="14.00">5</text>
</g>
<!-- 8&#45;&gt;7 -->
<g id="edge23" class="edge">
<title>8&#45;&gt;7</title>
<path fill="none" stroke="black" d="M251.16,-346.3C245.03,-342.22 237.51,-338.05 230,-335.97 220.8,-333.42 210.85,-335.74 202.21,-339.46"/>
<polygon fill="black" stroke="black" points="200.46,-336.43 193.12,-344.07 203.62,-342.67 200.46,-336.43"/>
<text text-anchor="middle" x="222" y="-339.77" font-family="Helvetica,Arial,sans-serif" font-size="14.00">1</text>
</g>
<!-- 0 -->
<g id="node5" class="node">
<title>0</title>
<ellipse fill="none" stroke="black" cx="426" cy="-252.97" rx="18" ry="18"/>
<text text-anchor="middle" x="426" y="-249.27" font-family="Helvetica,Arial,sans-serif" font-size="14.00">0</text>
</g>
<!-- 1 -->
<g id="node6" class="node">
<title>1</title>
<ellipse fill="none" stroke="black" cx="266" cy="-237.97" rx="18" ry="18"/>
<text text-anchor="middle" x="266" y="-234.27" font-family="Helvetica,Arial,sans-serif" font-size="14.00">1</text>
</g>
<!-- 0&#45;&gt;1 -->
<g id="edge4" class="edge">
<title>0&#45;&gt;1</title>
<path fill="none" stroke="black" d="M407.81,-251.34C380.52,-248.75 327.03,-243.67 294.41,-240.57"/>
<polygon fill="black" stroke="black" points="294.5,-237.07 284.21,-239.6 293.83,-244.03 294.5,-237.07"/>
<text text-anchor="middle" x="346" y="-249.77" font-family="Helvetica,Arial,sans-serif" font-size="14.00">0</text>
</g>
<!-- 2 -->
<g id="node7" class="node">
<title>2</title>
<ellipse fill="none" stroke="black" cx="346" cy="-199.97" rx="18" ry="18"/>
<text text-anchor="middle" x="346" y="-196.27" font-family="Helvetica,Arial,sans-serif" font-size="14.00">2</text>
</g>
<!-- 0&#45;&gt;2 -->
<g id="edge5" class="edge">
<title>0&#45;&gt;2</title>
<path fill="none" stroke="black" d="M418.66,-236.14C413.1,-224.01 403.75,-208.49 390,-200.97 385.21,-198.35 379.65,-197.14 374.15,-196.76"/>
<polygon fill="black" stroke="black" points="373.82,-193.26 363.86,-196.87 373.9,-200.26 373.82,-193.26"/>
<text text-anchor="middle" x="386" y="-204.77" font-family="Helvetica,Arial,sans-serif" font-size="14.00">0</text>
</g>
<!-- 1&#45;&gt;6 -->
<g id="edge9" class="edge">
<title>1&#45;&gt;6</title>
<path fill="none" stroke="black" d="M247.93,-241.01C242.23,-242 235.85,-243.07 230,-243.97 164.06,-254.15 86.24,-264.39 46.05,-269.54"/>
<polygon fill="black" stroke="black" points="45.46,-266.09 35.98,-270.83 46.35,-273.04 45.46,-266.09"/>
<text text-anchor="middle" x="138" y="-260.77" font-family="Helvetica,Arial,sans-serif" font-size="14.00">9</text>
</g>
<!-- 1&#45;&gt;0 -->
<g id="edge10" class="edge">
<title>1&#45;&gt;0</title>
<path fill="none" stroke="black" d="M281.9,-246.93C293.87,-253.54 311.38,-261.88 328,-264.97 355.11,-270 362.86,-267.84 390,-262.97 392.92,-262.45 395.94,-261.78 398.93,-261.04"/>
<polygon fill="black" stroke="black" points="400.06,-264.36 408.78,-258.34 398.21,-257.61 400.06,-264.36"/>
<text text-anchor="middle" x="346" y="-270.77" font-family="Helvetica,Arial,sans-serif" font-size="14.00">2</text>
</g>
<!-- 1&#45;&gt;2 -->
<g id="edge11" class="edge">
<title>1&#45;&gt;2</title>
<path fill="none" stroke="black" d="M282.41,-230.46C293.31,-225.15 308.14,-217.93 320.63,-211.84"/>
<polygon fill="black" stroke="black" points="322.16,-214.99 329.62,-207.46 319.1,-208.7 322.16,-214.99"/>
<text text-anchor="middle" x="306" y="-223.77" font-family="Helvetica,Arial,sans-serif" font-size="14.00">2</text>
</g>
<!-- 1&#45;&gt;3 -->
<g id="edge12" class="edge">
<title>1&#45;&gt;3</title>
<path fill="none" stroke="black" d="M253.95,-224.25C247.49,-216.78 238.87,-207.71 230,-200.97 222.12,-194.98 212.72,-189.59 204.16,-185.23"/>
<polygon fill="black" stroke="black" points="205.49,-181.99 194.96,-180.77 202.43,-188.28 205.49,-181.99"/>
<text text-anchor="middle" x="222" y="-204.77" font-family="Helvetica,Arial,sans-serif" font-size="14.00">0</text>
</g>
<!-- 2&#45;&gt;0 -->
<g id="edge7" class="edge">
<title>2&#45;&gt;0</title>
<path fill="none" stroke="black" d="M361.31,-209.69C372.74,-217.46 388.99,-228.5 402.21,-237.48"/>
<polygon fill="black" stroke="black" points="400.55,-240.59 410.78,-243.31 404.48,-234.8 400.55,-240.59"/>
<text text-anchor="middle" x="386" y="-231.77" font-family="Helvetica,Arial,sans-serif" font-size="14.00">4</text>
</g>
<!-- 2&#45;&gt;1 -->
<g id="edge8" class="edge">
<title>2&#45;&gt;1</title>
<path fill="none" stroke="black" d="M328.01,-197.41C319.82,-196.9 310.05,-197.39 302,-200.97 294.78,-204.18 288.33,-209.66 283,-215.43"/>
<polygon fill="black" stroke="black" points="280.16,-213.37 276.46,-223.3 285.54,-217.85 280.16,-213.37"/>
<text text-anchor="middle" x="306" y="-204.77" font-family="Helvetica,Arial,sans-serif" font-size="14.00">1</text>
</g>
<!-- 2&#45;&gt;3 -->
<g id="edge6" class="edge">
<title>2&#45;&gt;3</title>
<path fill="none" stroke="black" d="M337.14,-183.93C327.46,-166.39 309.17,-139.51 284,-129.97 254.43,-118.77 220.82,-138.75 199.76,-155.31"/>
<polygon fill="black" stroke="black" points="197.3,-152.81 191.82,-161.87 201.76,-158.2 197.3,-152.81"/>
<text text-anchor="middle" x="266" y="-133.77" font-family="Helvetica,Arial,sans-serif" font-size="14.00">0</text>
</g>
<!-- 3&#45;&gt;4 -->
<g id="edge13" class="edge">
<title>3&#45;&gt;4</title>
<path fill="none" stroke="black" d="M159.69,-172.22C151.03,-172.29 140.94,-173.93 134,-179.97 106.97,-203.49 100.11,-246.24 98.73,-274.62"/>
<polygon fill="black" stroke="black" points="95.23,-274.63 98.44,-284.73 102.23,-274.83 95.23,-274.63"/>
<text text-anchor="middle" x="138" y="-183.77" font-family="Helvetica,Arial,sans-serif" font-size="14.00">0</text>
</g>
<!-- 3&#45;&gt;1 -->
<g id="edge15" class="edge">
<title>3&#45;&gt;1</title>
<path fill="none" stroke="black" d="M188.62,-188.71C194.97,-197.54 203.96,-208.47 214,-215.97 221.44,-221.53 230.5,-226.02 238.91,-229.46"/>
<polygon fill="black" stroke="black" points="237.75,-232.76 248.34,-233.01 240.22,-226.21 237.75,-232.76"/>
<text text-anchor="middle" x="222" y="-228.77" font-family="Helvetica,Arial,sans-serif" font-size="14.00">1</text>
</g>
<!-- 3&#45;&gt;2 -->
<g id="edge14" class="edge">
<title>3&#45;&gt;2</title>
<path fill="none" stroke="black" d="M195.97,-176.46C220.96,-180.15 269.12,-187.35 310,-193.97 312.56,-194.38 315.22,-194.82 317.88,-195.27"/>
<polygon fill="black" stroke="black" points="317.48,-198.75 327.92,-196.98 318.65,-191.85 317.48,-198.75"/>
<text text-anchor="middle" x="266" y="-192.77" font-family="Helvetica,Arial,sans-serif" font-size="14.00">5</text>
</g>
<!-- 3&#45;&gt;5 -->
<g id="edge16" class="edge">
<title>3&#45;&gt;5</title>
<path fill="none" stroke="black" d="M187.05,-158.22C193.72,-145.62 203.74,-127.7 214,-112.97 223.78,-98.94 236.04,-84.2 246.09,-72.72"/>
<polygon fill="black" stroke="black" points="248.93,-74.8 252.95,-65 243.69,-70.15 248.93,-74.8"/>
<text text-anchor="middle" x="222" y="-116.77" font-family="Helvetica,Arial,sans-serif" font-size="14.00">2</text>
</g>
<!-- 5&#45;&gt;4 -->
<g id="edge18" class="edge">
<title>5&#45;&gt;4</title>
<path fill="none" stroke="black" d="M252.59,-39.67C239.7,-27.85 218.32,-10.81 196,-3.97 167.9,4.64 147.74,-0.99 134,-26.97 111.48,-69.57 102.8,-213.42 100.07,-274.82"/>
<polygon fill="black" stroke="black" points="96.57,-274.8 99.64,-284.94 103.56,-275.1 96.57,-274.8"/>
<text text-anchor="middle" x="178" y="-7.77" font-family="Helvetica,Arial,sans-serif" font-size="14.00">0</text>
</g>
<!-- 5&#45;&gt;3 -->
<g id="edge17" class="edge">
<title>5&#45;&gt;3</title>
<path fill="none" stroke="black" d="M248.26,-55.48C237.18,-58.6 223.07,-64.23 214,-73.97 195.57,-93.75 186.77,-123.77 182.61,-145.76"/>
<polygon fill="black" stroke="black" points="179.12,-145.39 180.92,-155.83 186.03,-146.55 179.12,-145.39"/>
<text text-anchor="middle" x="222" y="-77.77" font-family="Helvetica,Arial,sans-serif" font-size="14.00">3</text>
</g>
</g>
</svg>
